<?xml version="1.0" encoding="utf-8"?>
<!-- Generator: Adobe Illustrator 22.1.0, SVG Export Plug-In . SVG Version: 6.00 Build 0)  -->
<svg version="1.1" id="Layer_1" xmlns="http://www.w3.org/2000/svg" xmlns:xlink="http://www.w3.org/1999/xlink" x="0px" y="0px"
	 viewBox="0 0 24 24" style="enable-background:new 0 0 24 24;" xml:space="preserve">
<style type="text/css">
	.st0{fill:none;}
</style>
<path class="st0" d="M0,0h24v24H0V0z"/>
<path d="M14.6,3.1H5.7c-0.6,0-1.1,0.5-1.1,1.1v15.3c0,0.6,0.5,1.1,1.1,1.1h8.9c0.6,0,1.1-0.5,1.1-1.1V4.3
	C15.8,3.6,15.2,3.1,14.6,3.1z M12.5,12.2h-2v2H9.8v-2h-2v-0.7h2v-2h0.7v2h2V12.2z"/>
<path d="M19.7,20.7h-0.6c-0.3,0-0.5-0.2-0.5-0.5V3.7c0-0.3,0.2-0.5,0.5-0.5h0.6c0.3,0,0.5,0.2,0.5,0.5v16.5
	C20.2,20.5,20,20.7,19.7,20.7z"/>
<path d="M17.5,20.6h-0.6c-0.3,0-0.5-0.2-0.5-0.5V3.6c0-0.3,0.2-0.5,0.5-0.5h0.6c0.3,0,0.5,0.2,0.5,0.5v16.5
	C18,20.4,17.8,20.6,17.5,20.6z"/>
</svg>
