<?xml version="1.0" encoding="utf-8"?>
<!-- Generator: Adobe Illustrator 22.1.0, SVG Export Plug-In . SVG Version: 6.00 Build 0)  -->
<svg version="1.1" id="Layer_1" xmlns="http://www.w3.org/2000/svg" xmlns:xlink="http://www.w3.org/1999/xlink" x="0px" y="0px"
	 viewBox="0 0 24 24" style="enable-background:new 0 0 24 24;" xml:space="preserve">
<style type="text/css">
	.st0{fill:none;}
</style>
<path class="st0" d="M0,0h24v24H0V0z"/>
<g>
	<path d="M21.2,15.8c0,0.1,0,0.3,0,0.4c-0.1,0-0.1,0.1-0.2,0.1c-1.2,1.3-2.7,2-4.5,2.3c-0.6,0.1-1,0-1.3-0.5
		c-0.1-0.2-0.2-0.3,0.1-0.4c1-0.4,2-1,2.8-1.8c0.1-0.1,0.2-0.1,0.2-0.2c-4.2,2.4-8.4,2.4-12.7,0c0.1,0.1,0.2,0.2,0.3,0.3
		c0.8,0.8,1.7,1.3,2.7,1.7c0.1,0,0.2,0,0.2,0.2c0,0.2-0.7,0.9-0.9,0.8C6,18.5,4.4,17.8,3,16.4c-0.1-0.1-0.2-0.3-0.2-0.5
		C2.9,15,3,14.2,3.1,13.4c0.4-2.1,0.9-4.1,1.9-6c0.1-0.2,0.3-0.5,0.5-0.6c1.1-0.7,2.2-1.2,3.5-1.4c0.3-0.1,0.5,0,0.6,0.4
		C7.4,6.5,6.4,7.1,6,7.7c4-2.1,8-2.1,12.1,0c-1.1-1-2.3-1.6-3.7-1.9c0.1-0.3,0.2-0.4,0.5-0.4c1.2,0.2,2.4,0.7,3.4,1.4
		c0.3,0.2,0.5,0.4,0.6,0.7c1,1.9,1.6,3.9,1.9,6C21,14.2,21.1,15,21.2,15.8z M10.7,12.8c0-0.9-0.6-1.6-1.3-1.7
		c-0.7-0.1-1.4,0.5-1.6,1.4c0,0,0,0.1,0,0.1c-0.1,1,0.6,1.9,1.5,1.8C10.1,14.5,10.7,13.7,10.7,12.8z M13.3,12.8
		c0,0.9,0.6,1.6,1.3,1.7c0.8,0,1.4-0.5,1.6-1.5c0.1-0.8-0.4-1.6-1.1-1.8C14.1,11,13.3,11.7,13.3,12.8z"/>
</g>
</svg>
