<svg id="Layer_1" data-name="Layer 1" xmlns="http://www.w3.org/2000/svg" viewBox="0 0 192 192"><title>ext_opensea</title><path d="M96,2a94,94,0,1,0,94,94A94,94,0,0,0,96,2ZM48.38,99.16l.4-.64L73.23,60.27a.84.84,0,0,1,1.47.1c4.09,9.16,7.61,20.55,6,27.63a43.06,43.06,0,0,1-4.81,10.52c-.28.53-.59,1-.92,1.56a.81.81,0,0,1-.69.36H49.09A.83.83,0,0,1,48.38,99.16Zm109,13.16a.86.86,0,0,1-.52.79c-1.89.82-8.37,3.79-11.07,7.54-6.87,9.57-12.13,23.25-23.87,23.25h-49a31.49,31.49,0,0,1-31.44-31.54v-.56a.85.85,0,0,1,.84-.84H69.63a.93.93,0,0,1,.89,1,9.37,9.37,0,0,0,1,5.25,9.61,9.61,0,0,0,8.61,5.35H93.63V112H80.27a.86.86,0,0,1-.7-1.35c.14-.22.31-.45.48-.71,1.27-1.8,3.07-4.59,4.87-7.77a60.38,60.38,0,0,0,3.37-6.73c.19-.42.35-.84.5-1.26.26-.73.53-1.42.73-2.1s.34-1.19.5-1.76a27.44,27.44,0,0,0,.65-6.16c0-.84,0-1.72-.12-2.56s-.15-1.84-.27-2.75-.22-1.62-.38-2.46c-.19-1.22-.46-2.44-.77-3.67L89,72.29c-.23-.84-.42-1.64-.69-2.48-.76-2.64-1.64-5.21-2.57-7.61-.34-1-.72-1.87-1.11-2.79C84.08,58,83.5,56.77,83,55.58c-.27-.54-.5-1-.73-1.53s-.54-1.14-.81-1.68-.41-.8-.57-1.19l-1.65-3a.54.54,0,0,1,.61-.78l10.33,2.8h.07l1.36.37,1.5.43.55.15V45a5.34,5.34,0,0,1,5.31-5.37,5.27,5.27,0,0,1,3.76,1.57,5.39,5.39,0,0,1,1.55,3.8v9.12l1.11.31a.72.72,0,0,1,.25.12l1.15.87c.38.31.8.69,1.3,1.07,1,.8,2.18,1.84,3.49,3,.34.3.68.61,1,.92,1.68,1.57,3.56,3.4,5.36,5.43.5.57,1,1.15,1.5,1.76s1,1.22,1.49,1.83c.61.81,1.27,1.65,1.84,2.53.27.42.58.84.84,1.26.73,1.11,1.38,2.26,2,3.41.26.53.53,1.11.76,1.68A24.39,24.39,0,0,1,127.91,83a6.66,6.66,0,0,1,.22,1v.07a9.87,9.87,0,0,1,.19,1.46,15.37,15.37,0,0,1-.27,4.82,17,17,0,0,1-.57,2c-.23.66-.46,1.34-.76,2a27.53,27.53,0,0,1-2.08,3.94c-.26.46-.57,1-.88,1.42s-.68,1-1,1.41-.88,1.19-1.34,1.73a17.76,17.76,0,0,1-1.31,1.64c-.65.76-1.26,1.49-1.91,2.18A17.29,17.29,0,0,1,117,108c-.41.47-.84.88-1.22,1.27-.65.65-1.19,1.15-1.64,1.56l-1.07,1a.87.87,0,0,1-.57.21h-8.23v10.56h10.36a9.63,9.63,0,0,0,6.29-2.33,74.68,74.68,0,0,0,6.41-6.3.83.83,0,0,1,.39-.24l28.6-8.26a.84.84,0,0,1,1.07.81Z"/></svg>