<svg id="Layer_1" data-name="Layer 1" xmlns="http://www.w3.org/2000/svg" viewBox="0 0 192 192"><title>ext_ethscan</title><g id="etherscan-logo-circle"><path id="Path_1" data-name="Path 1" d="M42.74,91.64a7.72,7.72,0,0,1,7.72-7.72h0l12.87,0A7.73,7.73,0,0,1,71.1,91.7h0v48.66c1.45-.43,3.31-.89,5.35-1.37a6.44,6.44,0,0,0,5-6.27V72.36a7.74,7.74,0,0,1,7.74-7.74h12.89a7.74,7.74,0,0,1,7.74,7.74v56s3.22-1.31,6.37-2.63a6.45,6.45,0,0,0,3.94-6V53a7.73,7.73,0,0,1,7.74-7.73h12.89A7.74,7.74,0,0,1,148.47,53v55C159.65,99.91,171,90.16,180,78.45a13,13,0,0,0,2-12.13A91,91,0,0,0,97.15,4.89C46.61,4.21,4.84,45.46,4.85,96A90.76,90.76,0,0,0,17,141.58a11.53,11.53,0,0,0,11,5.7c2.44-.22,5.47-.52,9.08-.95a6.44,6.44,0,0,0,5.72-6.39V91.64"/><path id="Path_2" data-name="Path 2" d="M42.46,169.68A91.09,91.09,0,0,0,187.15,96c0-2.1-.1-4.17-.24-6.24-33.28,49.65-94.75,72.86-144.45,79.93"/></g></svg>