<?xml version="1.0" encoding="utf-8"?>
<!-- Generator: Adobe Illustrator 22.1.0, SVG Export Plug-In . SVG Version: 6.00 Build 0)  -->
<svg version="1.1" id="Layer_1" xmlns="http://www.w3.org/2000/svg" xmlns:xlink="http://www.w3.org/1999/xlink" x="0px" y="0px"
	 viewBox="0 0 681 681" style="enable-background:new 0 0 681 681;" xml:space="preserve">
<style type="text/css">
	.st0{fill:#000000;}
</style>
<path class="st0" d="M221.9,596.2c240.9,0,372.7-199.6,372.7-372.7c0-5.7-0.1-11.3-0.4-16.9c25.6-18.5,47.8-41.6,65.3-67.8
	c-23.5,10.4-48.7,17.5-75.2,20.6c27-16.2,47.8-41.9,57.6-72.5c-25.3,15-53.3,25.9-83.2,31.8c-23.9-25.5-57.9-41.4-95.6-41.4
	c-72.3,0-131,58.7-131,131c0,10.3,1.2,20.3,3.4,29.9c-108.9-5.5-205.4-57.6-270-136.9c-11.2,19.4-17.7,41.8-17.7,65.8
	c0,45.4,23.1,85.6,58.3,109c-21.5-0.7-41.7-6.6-59.3-16.4c0,0.6,0,1.1,0,1.7c0,63.4,45.1,116.4,105.1,128.4c-11,3-22.6,4.6-34.5,4.6
	c-8.4,0-16.6-0.8-24.6-2.4c16.7,52,65,89.9,122.4,91c-44.8,35.1-101.3,56.1-162.7,56.1c-10.6,0-21-0.6-31.2-1.8
	C79,574.5,147.9,596.2,221.9,596.2"/>
</svg>
