<?xml version="1.0" encoding="utf-8"?>
<!-- Generator: Adobe Illustrator 22.1.0, SVG Export Plug-In . SVG Version: 6.00 Build 0)  -->
<svg version="1.1" id="Layer_1" xmlns="http://www.w3.org/2000/svg" xmlns:xlink="http://www.w3.org/1999/xlink" x="0px" y="0px"
	 viewBox="0 0 48 48" style="enable-background:new 0 0 48 48;" xml:space="preserve">
<style type="text/css">
	.st0{fill:#0092FF;}
	.st1{enable-background:new    ;}
	.st2{fill:#FFFFFF;}
</style>
<path d="M36.8,0.5H11.1c-0.9,0-1.6,0.7-1.6,1.6l0,0v44.1c0,0.9,0.7,1.6,1.6,1.6h25.8c0.9,0,1.6-0.7,1.6-1.6V2.2
	C38.4,1.2,37.7,0.5,36.8,0.5z M35.8,44.4H11.9V3.9h23.9V44.4z"/>
<circle class="st0" cx="24" cy="24" r="9.8"/>
<g class="st1">
	<path class="st2" d="M25.2,29.8h-5.1c-0.2,0-0.3,0-0.4-0.1c-0.1-0.1-0.1-0.2-0.1-0.4v-1.9c0-0.2,0-0.3,0.1-0.4
		c0.1-0.1,0.2-0.1,0.4-0.1h4.3c0.1,0,0.2,0,0.3-0.1c0.1-0.1,0.1-0.2,0.1-0.3c0-0.2,0-0.3-0.1-0.4c-0.1-0.1-0.2-0.1-0.3-0.1L22,25.4
		c-0.7-0.1-1.3-0.4-1.8-0.7c-0.5-0.4-0.7-1-0.7-1.9v-1.7c0-0.9,0.3-1.6,0.9-2.1c0.6-0.5,1.4-0.7,2.4-0.7h4.5c0.2,0,0.3,0,0.4,0.1
		c0.1,0.1,0.1,0.2,0.1,0.4v1.9c0,0.2,0,0.3-0.1,0.4c-0.1,0.1-0.2,0.1-0.4,0.1h-3.7c-0.1,0-0.2,0-0.3,0.1c-0.1,0.1-0.1,0.2-0.1,0.3
		s0,0.3,0.1,0.4c0.1,0.1,0.2,0.1,0.3,0.2l2.4,0.3c0.7,0.1,1.4,0.4,1.8,0.7c0.5,0.4,0.7,1,0.7,1.9v1.7c0,0.9-0.3,1.6-0.9,2.1
		C27,29.5,26.2,29.8,25.2,29.8z"/>
</g>
</svg>
